<svg id="Layer_1" data-name="Layer 1" xmlns="http://www.w3.org/2000/svg" viewBox="0 0 4827.63 1284.05"><path d="M763.35,1051.93c4.31-8.9.38-17-.17-25.82-13.12,3.51-25.21,2.19-37.51-1.08-12.92-3.45-22.46-10.28-28.64-22.13-.87-1.66-3.86-3.74-5.26-3.37-17.81,4.74-29.89-3.89-39.27-17.23-21.35-30.39-25.79-64.22-19.5-100.18a54.39,54.39,0,0,0,0-20,172.72,172.72,0,0,1-.4-71.27c.29-1.4.65-2.79.9-4.2,1.62-9.4,1.69-9.85-7-13.44a44.13,44.13,0,0,1-22.1-19.54c-4.43-7.82-8.48-15.88-12.35-24-3.37-7.06-2.37-13.64,3.83-18.82,5.33-4.45,11-8.52,16.31-13a131,131,0,0,0,10.77-9.9,7.12,7.12,0,0,0,1.59-4.89c-.81-11.15-1.75-22.3-2.89-33.43-.59-5.84-1.63-11.64-2.51-17.46-.34-2.22-1-4.4-1.16-6.63-2.13-25-4.32-50-6.25-75.08-2.7-35-3.07-70.06,2.94-104.59,3.72-21.41,11.19-42.24,17.74-63.09a302.73,302.73,0,0,1,34-73.21c13.55-21.14,25.39-43.36,38.31-64.92a89.41,89.41,0,0,1,11.95-15.53,187.3,187.3,0,0,0,30-41.69c11.88-22.32,29.53-39.53,50.83-53.07,4.49-2.86,9.54-5,7.6-12.6-.54-2.13,3.65-7.29,6.56-8.19,37-11.49,71.31-29.64,108.1-42,35.81-12,71.73-22.81,108.56-30.65,15-3.17,30.37-4.21,45.57-6.23,12.18-1.62,24.31-3.63,36.53-4.83,47.41-4.67,94.88-4.93,142.18.81,40.24,4.88,78.8,16.44,116.39,31.62,14.18,5.72,29.22,9.28,43.66,14.39,10,3.54,19.74,8,29.51,12.16a59.85,59.85,0,0,1,10.26,5.5c19,13.14,37.89,26.45,56.85,39.67,7,4.91,13.73,10.55,21.31,14.44,18.56,9.54,33.1,24.28,47.68,38.29,12.92,12.41,22.71,28.27,32.9,43.27s19.43,30.78,28.74,46.42a253.78,253.78,0,0,1,14.45,26.95c22.31,50.51,33.1,103.88,36.86,158.6,2.81,40.8-2.13,81.39-8.74,121.57-3,18-9.8,35.37-14.91,53-4.27,14.74-8.73,29.42-12.84,44.19-4.77,17.11-12.66,32.57-22.14,47.59-19.18,30.43-43.77,56.33-69.5,80.75-17,16.14-37.86,28.41-57.58,41.54-37.47,24.94-79.84,39.47-121.36,55.75-15.86,6.22-31.79,11.95-48.95,13.51-2.92.27-5.79,1.87-8.53,3.16-12.13,5.72-23.4,13.53-37.26,14.9-3.28.33-4,2-4.26,5.27-.83,12.6-2,25.2-3.6,37.72-.29,2.23-3.12,5.42-5.26,5.88-9.69,2.07-19.54,3.48-29.37,4.81-11.74,1.6-23.53,2.89-35.29,4.32a15.81,15.81,0,0,1-2.41.42c-18.81-.51-26.17,12.67-33,27-8.84,18.44-18.18,36.64-27.28,54.95-.8,1.61-1.9,3.26-2.07,5q-4.21,41.48-8.13,83c-.56,6-2.46,11.07-7.22,15-10.25,8.44-20.92,16.46-30.55,25.57-16.59,15.69-33.61,30.86-47,49.87-13.75,19.53-32.61,32.23-57.63,34.4-23.67,2.06-47.08,5.92-69.85,13.15-5.21,1.66-10.84,2-16.28,3-31.27,5.42-62.45,3.8-93.31-2.6a100.9,100.9,0,0,1-29.21-10.88c-14.87-8.51-30.57-14.61-46.61-20.15-27.64-9.55-44.49-29.81-54.55-56.14-3.76-9.85-5-20.62-8-30.82a19.11,19.11,0,0,0-5.43-9c-18.16-15.38-18.05-34.75.34-50.06,1.7-1.41,2.78-4.43,2.88-6.76.74-16.89,6.94-31.79,15.69-45.92,5.8-9.37,13.82-13.65,24.82-11.74,3.32.58,5.5.24,7.32-3.4,7.49-15,22.35-18.48,36.57-9A25.93,25.93,0,0,0,763.35,1051.93ZM879.44,944.24c3.42-2.94,6.41-5.59,9.48-8.14,8-6.63,16.5-12.08,27.15-13.33,6.81-.79,11.91,1.6,15.81,7.19,2.56,3.68,5.71,6.94,8.26,10.62,5,7.19,10.63,14.13,14.39,21.95,4.21,8.76,6.6,18.41,9.92,27.62.48,1.31,1.74,2.35,2.63,3.51,1-1.17,2.46-2.21,2.78-3.53,1-4.17,1.49-8.44,2.25-12.67.38-2.19.89-4.36,1.34-6.54l2.3.09,2.59,20.2c2-1.49,3.78-2.72,5.48-4,12-9.15,23.42-19.23,36.19-27.13,8.48-5.24,18.68-9.51,28.47-10.47,29.74-2.88,57.87,2.89,82.8,20.62a10.65,10.65,0,0,0,7.25,1.33c22.36-3.86,44.64-8.2,67-11.87,5.58-.91,9.45-2.85,12.26-7.76,3.86-6.76,4.63-12.46-.4-19.67-10.33-14.8-19.29-30.74-21.86-48.92a306.33,306.33,0,0,1-1.16-76.54c.75-6.83,2.95-13.55,5.06-20.14.5-1.56,3.34-2.37,5.1-3.52a42.54,42.54,0,0,1,3.3,5.2c.47,1,.14,2.42.16,3.65.2,15.95-.21,31.94.77,47.84,1.07,17.25,1.36,34.8,11.76,50.08,8.56,12.57,23,18.55,37.72,14.77a39.85,39.85,0,0,1,5.38-1.12c23.63-2.54,47.21-5.69,69.64-13.81,13.62-4.94,26.68-11.46,39.88-17.54,37-17,75.59-30.65,109.87-53.12,17.78-11.64,36.9-22.14,52.06-36.66,24.15-23.11,48-47.07,65.58-76a223.51,223.51,0,0,0,17-35.09c4.35-11.2,6.64-23.18,10.16-34.72,5.78-19,12.87-37.6,17.39-56.84,3.77-16,4.53-32.78,6.82-49.18a322.33,322.33,0,0,0,0-91.75c-3.78-25.63-11.13-50.71-15.89-76.22-4.24-22.69-13.79-43.17-24.48-63.14-9.06-16.93-19.22-33.32-29.7-49.42-9.45-14.5-18.8-29.39-30.42-42.06-10.64-11.59-23.9-20.93-36.66-30.37-22.18-16.4-45.43-31.4-67.18-48.33-16.76-13-36.36-19.59-55.38-27.22-22.92-9.19-46.89-15.72-70.21-23.95a355.29,355.29,0,0,0-87.41-19C1175.43,54,1116,56.42,1057,63.9A516.74,516.74,0,0,0,936.44,94.22a73.34,73.34,0,0,1-16,4.29c-24.63,3.39-46.55,14-67.89,25.75-9.77,5.37-18.55,12.67-27.37,19.62-18.32,14.43-36.94,28.69-49.32,49.05-9,14.84-17.31,30.14-26.58,44.83-11.77,18.66-24.62,36.65-36.21,55.42-7.61,12.32-13.8,25.51-20.64,38.31-6.06,11.35-13.16,22.27-18,34.13-7.74,19.12-13.93,38.86-20.83,58.32a227.61,227.61,0,0,0-13.56,70.8,155.89,155.89,0,0,1-1.67,21.4c-4.61,27.52-1.51,55.07-.57,82.58.57,16.52,2.44,33,4,49.46.24,2.43,2.1,4.7,3.21,7,2.27-1.22,4.51-2.51,6.83-3.63s4.94-3.18,6.66-2.58c1.88.66,3.19,3.76,4.11,6,.54,1.36,0,3.26-.34,4.83-6.41,26.07-18.62,48-43.89,60.36-1.7.84-3.3,1.87-5.31,3,11,12.2,20.83,24.16,36.46,29.53,5.25,1.8,9.58,6.28,15.4,10.27-3.44,1.83-5.48,2.67-7.23,3.93-1.13.81-2.51,2.15-2.63,3.37-1.61,16.07-3.72,32.15-4.23,48.27-.4,12.92-3.9,26.83,7.28,38.08.43-.16,1.37-.47,2.26-.87,17.11-7.53,22.56-6.3,34.18,8.32,8.82,11.08,17.37,22.37,26.1,33.65,1.75-4.55,3.73-9.75,5.72-14.94l2.12.46c.16,3.32.66,6.67.38,10-.29,3.53-1.32,7-2.09,10.88,8.81-3.5,17.27-7,25.86-10.22,8-3,14.92-1.74,21.33,4.58,7.83,7.72,12.82,16.86,16.31,27.05.59,1.73,1.39,3.39,2.05,5,7.42-6.64,2.17-17.29,9.44-25.36,3.19,10.57-1.45,18.52-3.51,28.17,7.39-5.58,13.21-10.37,19.43-14.58,13.6-9.2,24.43-8,34.25,4.92,6.53,8.6,11.49,18.39,17.34,27.95.62-3.09,1.33-6.93,2.18-10.74s1.83-7.67,2.75-11.5l3.14.27C878.08,934.28,878.71,938.85,879.44,944.24ZM790.66,1208l-3.74-.07-2.4-18c-27.9,14.7-37.4-5.21-47.12-25.62-2.14,5.82-3.26,11.33-4.87,16.69-.53,1.79-2.31,3.21-3.52,4.79-1-1.81-2.42-3.52-2.86-5.46-.4-1.77.26-3.79.55-6.67-12.91,5.67-21.22.34-28.18-9.2-4.65-6.39-9.75-12.46-15.61-19.89-1.8,3.13-4.7,6-4.58,8.62.11,2.45,3.16,5.16,5.51,7,4.59,3.64,10.23,6.14,14.24,10.27,4.94,5.07,4.18,6.57-2.61,9.62,2.09,8.62,3.54,17.57,6.56,26,2,5.55,5.13,11.73,9.64,15.17,14,10.63,28,21.56,43.47,29.64,22.77,11.92,46.49,22.29,71.42,29.12,6.29,1.72,13.34,1.57,20,1.07,20.59-1.57,41.09-4.47,61.69-5.4,15.91-.71,31.9.76,47.48-4,2.88-.88,6.07-.82,9.12-1.13,23.83-2.4,45.13-11,61.65-28.46,26.21-27.68,53.11-54.5,83.59-77.53a13.59,13.59,0,0,0,5.64-11.6c0-6.53,0-13.17,1.09-19.56,3.3-18.53,7.52-36.89,10.7-55.43,2.38-13.87,4.73-27.88,5.24-41.9.54-15-12.76-23.8-27.06-19.25a54.28,54.28,0,0,0-10.46,5c-10.21,5.88-16.29,15.83-24.09,24.15-14.36,15.31-15.67,34.25-17.8,55.14l34.8-26c-3.4,11.44-10.55,19.31-19.57,25.79-5.27,3.79-10.08,8.23-15.17,12.29-10.35,8.23-19.73,18.42-31.31,24.22-31.43,15.72-63.79,29.56-95.62,44.08l-.64,6.42-6.56-1.43c-6.5,8.44-12.16,17.23-19.25,24.65-9.22,9.65-17.69,8.91-26.78-.95-4-4.32-7.73-8.85-11.55-13.24-6.6,4.23-6.82,4-8.44-6.67-3.49,3.31-6.6,6.79-10.24,9.56a122.71,122.71,0,0,1-12.45,7.81c-11,6.47-18.1,5.19-26-5-4-5.1-7.46-10.57-12.11-17.21Zm75.24-210.4c3.92,20.68,7.84,40,16.34,58.21,7.83,16.76,14.22,18.18,28.65,6.45,20.43-16.61,29.49-40.13,39.32-63.2.88-2.06,0-5.23-.82-7.59-6.14-17-13.55-33.17-26.76-46.25-6.38-6.32-6.81-7.53-14.55-2.82-14.91,9.08-27.4,20.64-34.52,37.05C870.81,985.76,868.2,992.13,865.9,997.59Zm-78.95-36-1.85-.94c-.43,3.21-1,6.4-1.28,9.62-1.12,13.64-1.78,27.33-3.3,40.92-2,17.47,8.35,27.21,23.59,32.53,6.89,2.4,13.7,0,17.17-6.4,11.5-21.17,22.8-42.46,34.11-63.73a5.11,5.11,0,0,0,.6-3.42c-4-13.07-7.08-26.47-17-36.92-3.7-3.9-7.16-4.57-11.22-1.57-10.69,7.88-21.23,16-31.88,23.91C793,957.69,789.93,959.55,787,961.55ZM722.14,923c-1.95,20.38-3.6,41.12-6.09,61.76-1,8.18,1.7,13.63,8,18.3,9.76,7.26,19.91,11,32,6,3.23-1.34,7-1.4,11.39-2.22.89-6.67,2-13.89,2.77-21.14,1.45-13.21,2.45-26.48,8.38-38.74a6.72,6.72,0,0,0,.36-4.7c-3.13-8.4-5.87-17-10-25-5.16-9.94-7.93-10.52-18.18-6.34C741.2,914.87,731.72,919,722.14,923Zm-18.08,46.42c-.12.26.14-.09.21-.47,2.85-17.29,5.72-34.58,8.48-51.88a5,5,0,0,0-.76-3.34c-10.71-14.68-21.43-29.35-32.41-43.82-1.21-1.59-4.7-3.26-6.05-2.62-6.73,3.22-13.67,6.52-19.31,11.24-2.2,1.85-1.28,7.5-1.66,11.43-.19,2-.17,4.08-.17,6.13,0,23.08-1,46.2,9.25,68,5,10.59,16.55,15.53,27.11,10.7C693.5,972.63,698.63,971.32,704.06,969.45Zm42.59,176.46c-1.91,9.34,4.22,16.79,8.85,24.57,7.25,12.21,12.61,13.12,24.22,4.93.84-.59,1.73-1.11,2.5-1.77,8.22-7,16.67-13.86,16.47-26.12,0-1.72,0-3.7-.76-5.08-4-7-8.43-13.8-12.58-20.75-4.8-8-9.3-16.25-14.28-24.17-2.35-3.74-5.77-3.82-8.5-.2a87.17,87.17,0,0,0-7.75,11.67C748.9,1120.26,747.09,1132.55,746.65,1145.91Zm56.87,27.36-2.61.68c5,6.86,9.86,13.9,15.29,20.42,1.08,1.29,5.23,1.69,6.74.68,10.46-7,20.9-14.17,30.74-22,6.66-5.32,6-17.33.23-23.6-8.49-9.32-16.51-19.08-24.73-28.64-1.24-1.44-2.53-2.83-4.11-4.6-11.18,14.23-14,30.55-17.54,46.63C806.73,1166.41,804.88,1169.79,803.52,1173.27Zm-112.3-45.06c2.74,6.67,4.09,12.18,7.07,16.6,3.61,5.37,8.5,9.9,13.05,14.59a9.12,9.12,0,0,0,5.08,2.88c6.75.56,17.8-10.59,18.25-17.32.62-9.33,1.89-18.62,2.77-27.93.16-1.72.49-4-.4-5.15-6.16-7.86-12.48-15.61-19-23.14-3.16-3.62-10-3.43-11.63.57C700.88,1102.43,696,1115.8,691.22,1128.21Zm191.55,2.29c-1.81,3.18-3.28,5.12-4.09,7.3-2.26,6.14-4.44,12.32-6.32,18.58-6.74,22.48-6.38,23.75,10.22,40.81a3.58,3.58,0,0,1,.43.44c2.62,3.49,5.48,4.15,8.42.46,5.57-7,11.16-14,16.44-21.25.71-1,.12-3.46-.62-4.83q-7.9-14.57-16.19-28.9C888.74,1139.1,886,1135.35,882.77,1130.5Zm-143.53-35.68c7.38-11.63,7.73-22.17.93-27.55C730,1077.75,729.67,1085.85,739.24,1094.82Z" transform="translate(-32.37 -26.42)"/><path d="M197.32,352.55c7.34-4.06,13.25-8.21,19.79-10.78C238,333.54,259.2,325.89,280.27,318c3.64-1.36,7.26-2.78,11-4,8.1-2.61,15.93-2.36,22.3,3.95,5.94,5.88,5.29,12.82,2,19.88-3.71,8-7.41,15.94-11,24Q282.32,412,260.17,462.26c-9.92,22.46-20.56,44.63-29.48,67.47C221.24,553.9,213,578.57,205,603.27,192.79,641,181.3,679,169.3,716.78c-2.78,8.76-6.3,17.29-9.57,25.9s-10.92,13.07-19.32,11.52-13.46-7.75-13.2-17.3c1-37.21,1.9-74.44,3.64-111.62.88-18.76,3.93-37.4,5.24-56.15,1.18-16.71,1.44-33.48,1.88-50.23.25-9.17.05-18.36.05-28.74-4.72,1.83-8.94,3.5-13.19,5.13-9.89,3.79-19.8,7.54-29.69,11.34-9.35,3.59-18.79,7-28,10.88-15,6.41-28-1.85-28.14-18.14-.38-66.08-1.3-132.15-.9-198.22.18-28.79,3.2-57.56,4.63-86.34.54-10.82.43-21.69.2-32.53,0-1.78-1.83-4.29-3.49-5.14-5-2.6-7.07-6.75-7.07-12s3-8.59,7.72-10.8c3.09-1.44,5.79-3.66,8.82-5.23a57.08,57.08,0,0,1,8.91-3.77c5.37-1.7,11.06-2.55,16.25-4.66,32.6-13.26,65.09-26.8,97.65-40.17,9.83-4,19.58-8.4,29.69-11.6,12-3.8,22.57,4.33,21.34,16.72-1.39,14-4.9,27.78-6.42,41.78q-5.46,50.31-9.83,100.75c-2.39,27.47-3.94,55-6.08,82.53C199.89,337.59,198.51,344.39,197.32,352.55Zm75.35,2.24c-4.36,1.59-7.67,3.1-11.14,4-24.7,6.55-46.53,19-67.25,33.38-6.83,4.75-13.25,7.14-21,3.3-7.95-3.92-11-10.55-10.37-19.14,2-27.07,3.75-54.17,6.12-81.21,1.81-20.56,4.52-41,6.68-61.57,2.85-27,5.28-54.11,8.43-81.11,1.27-10.85,3.95-21.54,6-32.49a6.59,6.59,0,0,0-1.9.16q-54.31,22-108.65,44c-3.54,1.42-4.36,3.51-4.35,7,0,14.31.27,28.65-.35,42.94-1.32,30.83-4.22,61.64-4.49,92.47-.49,55.63.48,111.26.86,166.9,0,1.73.31,3.47.52,5.78,10.53-3.14,20.6-5.72,30.38-9.16,15-5.28,29.77-11.26,44.73-16.72a14.74,14.74,0,0,1,15.1,2.42c5.85,4.93,9.58,11.13,9.26,19.17-.27,6.94-.68,13.89-.72,20.84-.21,33.73.78,67.48-5.54,100.91-1.89,9.95-1.9,20.26-2.76,30.4,2.2-2.1,2.87-4.42,3.66-6.71,12.6-36.52,23.92-73.54,38.17-109.41,16.89-42.54,36.25-84.09,54.64-126C263,375.05,267.72,365.41,272.67,354.79Z" transform="translate(-32.37 -26.42)"/><path d="M1446,957.66c11.69-.28,18,4,19.3,11.74s-3.33,15-13.14,17c-17.41,3.54-35,6.37-52.58,8.91-21.65,3.14-43.39,5.63-65.08,8.52-3.22.43-6.35,2.21-9.5,2.15-2.58,0-5.13-1.89-7.69-2.94,1.3-2.43,2-6.06,4-7.1a360.5,360.5,0,0,1,119.17-37.72C1443,957.88,1445.41,957.72,1446,957.66Z" transform="translate(-32.37 -26.42)"/><path d="M1431,1079.86c-20.84-1.63-41.52-4.21-60.8-12.92-5.7-2.58-10.85-6.36-16.41-9.29-3-1.58-6.45-2.26-9.43-3.85-2.18-1.15-3.9-3.14-5.83-4.76,2.28-1.3,4.67-3.86,6.84-3.69,13.77,1.09,27.54,2.47,41.22,4.37s27.5,4.1,41,7c6.43,1.4,12.65,4.38,18.53,7.49a8,8,0,0,1,3.9,10.53c-1.74,4.42-5.42,5.83-9.9,5.61C1437.06,1080.23,1434,1080,1431,1079.86Z" transform="translate(-32.37 -26.42)"/><path d="M472.62,738.8c.19-8.36,9.08-13.76,16.29-10.08a384.87,384.87,0,0,1,33.7,19.81A85.58,85.58,0,0,1,550,776.83c.86,1.44.52,3.6.73,5.42a34.64,34.64,0,0,1-4.91-.57c-4.68-1.23-9.35-2.51-14-4-17.6-5.62-32.57-15.94-47.3-26.66-2.81-2-5.81-3.92-8.22-6.38C474.49,742.76,473.4,740.07,472.62,738.8Z" transform="translate(-32.37 -26.42)"/><path d="M1384.59,1157.72c.09,7.82-5.65,12.14-11.23,8.89-19.11-11.1-37.56-23.18-52.95-39.36-4.19-4.4-9.09-8.15-13.16-12.64-1.42-1.57-1.35-4.49-2-6.8,2.38-.3,5.29-1.63,7.07-.74,16.55,8.34,33.27,16.46,49.17,25.94,7.67,4.57,13.88,11.73,20.33,18.15C1383.69,1153,1384,1156.3,1384.59,1157.72Z" transform="translate(-32.37 -26.42)"/><path d="M490.69,807.73c15.73.44,29.13,2.3,40.75,10.86,1.75,1.29,4.53,1.36,6,2.82,1.85,1.8,4.37,4.92,3.85,6.65-.67,2.23-4.09,5.22-6.26,5.18q-30.52-.68-61-2.44c-7.05-.42-11.14-5.13-11.07-10.88s4.15-9.86,11.28-10.78C480.31,808.37,486.44,808.08,490.69,807.73Z" transform="translate(-32.37 -26.42)"/><path d="M524.32,889.32c3.79-.63,7.58-1.31,11.39-1.86,3.49-.5,7.42-.06,7.57,4,.09,2.41-2.46,5.44-4.61,7.27-2.88,2.45-6.59,3.9-9.82,6a62.23,62.23,0,0,1-39.68,10c-6.34-.53-11-5.23-11.08-10.41,0-6.08,3.85-9.9,9.09-10.83,12.24-2.17,24.65-3.4,37-5Z" transform="translate(-32.37 -26.42)"/><path d="M850.54,619.58c0-16.55-.09-33.1,0-49.65.15-21.49,7.15-41.37,14.63-61.12,4.93-13,10.5-25.77,14.73-39,3.45-10.75,10.92-17.5,19.26-24,14.64-11.45,31.29-15.93,49.53-13.79,22.47,2.63,45.25,3.32,66.82,11.8,24.27,9.54,45.32,23.34,62.22,43.25,9,10.59,18.21,21,26.63,32a87.2,87.2,0,0,1,11.53,20c11.85,29.19,17.16,59.57,14.66,91.13-.88,11-1.94,22-2.83,33-2.12,26.07-3.8,52.18-6.37,78.2-2.66,27-8.52,52.9-28.72,73.22-12.49,12.58-27.73,15.54-43.56,10.42-27.79-9-55.38-18.74-80.82-33.71-7.81-4.6-17.22-6.43-25.53-10.31-11.66-5.43-23-11.49-34.43-17.48C896,757.06,884,750.17,871.61,743.83c-11.37-5.85-17.47-15.07-19-27.53a562.28,562.28,0,0,1-3.83-96.72Zm75.72-160-.6-1.5c-9.33,3.32-18.82,6.28-27.9,10.19-2.68,1.15-5.09,4.72-6.06,7.69-5.62,17.09-10.58,34.39-16.15,51.5-4.79,14.69-7.84,29.61-8.07,45.1-.44,29.65-1.54,59.31-1.23,88.95.18,17.33,2.55,34.63,4,51.94.63,7.74,4.94,12.56,11.85,15.77,7.41,3.44,14.63,7.31,21.82,11.19,14.92,8,29.54,16.68,44.71,24.22,17.35,8.62,35.27,16.09,52.73,24.51,6.65,3.21,12.86,6.43,20,2,2.6-1.62,7.44-4.21,7.17-5.07-1.12-3.55-3.07-8-6-9.57A131.21,131.21,0,0,0,997,766.15a293.15,293.15,0,0,1-64-26.21c-18.93-10.44-31.66-26-33.16-49.09-.57-8.9-3.13-17.68-4.84-26.5-.89-4.61-2.81-9.23-2.68-13.8.6-20.42,1.06-40.9,3-61.23,1.46-15.42,5.51-30.58,7.63-46,3.82-27.74,12.6-53.19,31.72-74.36,2.94-3.25,1.4-7.87-2.89-9A26.72,26.72,0,0,0,926.26,459.6Z" transform="translate(-32.37 -26.42)"/><path d="M804.82,817.43c0,5.72.49,11.5-.09,17.16-1.31,12.64-9.71,16.83-20.78,10.75a13.58,13.58,0,0,1-2.11-1.27c-12.46-10.3-28.17-12.67-42.91-17.32-7.46-2.35-10.06-4.91-10.51-12.9-.6-10.7-.62-10.63-11.11-13.17a86.27,86.27,0,0,1-11.13-3.44c-8.69-3.39-13.91-10.58-13.5-19.92.4-9,2.06-17.87,2.74-26.83,1.36-18,2.36-35.92,3.67-53.88.43-5.9,1.12-11.8,2-17.65,1.51-9.47,7.51-16.43,15.18-21,6-3.52,13.34-4.88,20.24-6.58,8.9-2.21,15.73,1.25,21.48,8.31,16.48,20.18,27.42,43.3,34.15,68.08,4.74,17.46,6.8,35.68,9.6,53.64,1.85,11.9,2.89,23.92,4.29,35.89Zm-80.7-29.87c.11-1.8.32-2.42.16-2.93-3.31-10.42-5.79-20.88-2.83-31.88.4-1.47-.43-3.23-.44-4.85-.06-17.3-.43-34.61.12-51.89.18-5.31,2.41-10.78,4.65-15.75,2.08-4.63,1.61-8.1-1.46-11.22l-13.54,2.58a16.58,16.58,0,0,0-.29,2.11c-.67,26.54-1.19,53.09-2.07,79.62-.25,7.32-1.92,14.6-2.17,21.92-.1,2.63,1.33,6.67,3.31,7.73C713.86,785.28,719,786.06,724.12,787.56Z" transform="translate(-32.37 -26.42)"/><path d="M712,440.17l8.52-16.93,2.19.57c.24,1.41.8,2.85.66,4.22-1,9.66-2.31,19.29-3.07,29-.88,11.18-1.18,22.4-1.89,33.59-1.41,22.23-2.52,44.49-4.55,66.66-1.49,16.24-4.15,32.38-6.51,48.53a13.12,13.12,0,0,1-9,10.77c-8.84,3.18-17.77,6.09-26.67,9.11a14.67,14.67,0,0,0-2.88.91c-4.92,3-9.6.84-12.09-4.27-10.61-21.76-6.9-44.36-4.23-66.84,1.52-12.78,3.59-25.53,6.16-38.14,1.59-7.75,4.5-15.24,7-22.8,4.14-12.55,8.06-25.2,12.81-37.52,1.7-4.42,5.22-8.29,8.47-11.91C693.81,437.41,702.11,435,712,440.17ZM666.65,601c6.4-1.58,10.37-7.7,10.88-16.29q2.21-37,4.53-74c.77-12.24,3.4-23.79,11.67-33.53a31.86,31.86,0,0,0,5.18-9.67c1.12-3.06,2.92-6.93-1.85-8.87-4.58-1.87-7.49,0-8.75,4.6q-5.14,18.8-10.22,37.63c-1.76,6.49-4,12.9-5.14,19.5-2.4,13.67-5,27.38-6.08,41.19C665.85,574.59,666.65,587.8,666.65,601Z" transform="translate(-32.37 -26.42)"/><path d="M1546,741.93c-2.65,12.59-8.76,20.91-16.38,28.38-13.16,12.94-26.75,25.33-43,34.46a13,13,0,0,0-2.52,1.74c-20,18.68-45.41,29-68.21,43.31-5.79,3.63-12.71,5.59-19.29,7.79-20.75,6.95-41.31,14.68-62.45,20.16-22.64,5.86-45.32,12.75-69.17,12.07a36.41,36.41,0,0,1-10.6-2.38c-1.16-.4-2.74-2.89-2.4-3.66a7.07,7.07,0,0,1,4-3.09c1.45-.52,3.24,0,4.86-.15,10.17-.78,20.54-.58,30.45-2.62,25.82-5.31,51.44-11.59,75.71-22.3a71.52,71.52,0,0,1,11.71-3.62c17-4.2,32.56-11.35,48-19.89,26.4-14.65,50.64-32.36,74.68-50.29,13.35-10,24.8-22.47,37.14-33.78C1540.48,746.25,1542.66,744.66,1546,741.93Z" transform="translate(-32.37 -26.42)"/><path d="M802.76,444.94c-2.29-14.74,4-28.71,4.73-42.95-6.53-1.63-12.7-2.88-18.64-4.83-2.1-.69-3.65-3.09-5.44-4.7,2.57-1,5.22-3,7.72-2.87,4.42.28,8.73,2,13.12,2.92,4.13.9,6.15-.58,7.23-5,4.68-19.24,9.21-38.57,15-57.49,2.9-9.46,8.58-18,12.7-27.15,3.45-7.61,6.46-15.41,9.65-23.13,1.24-3,2.11-7,6.48-5.73s3.59,5.09,2.46,8.24c-3,8.44-5.71,17.11-9.7,25.1A187,187,0,0,0,832.6,351.8c-2.53,11.76-6.21,23.27-9.32,34.91a44.42,44.42,0,0,0-.75,5.07l22.15,5.92c-4.21,6.15-9.19,5.41-13.47,4.56-13.92-2.8-10.9-.51-13.86,10.27-1.94,7.09-3.19,14.41-5.66,21.3-1.54,4.31-4.77,8-7.24,12Z" transform="translate(-32.37 -26.42)"/><path d="M1257.05,861.71c-2.11-.16-3.21,0-4.13-.36a23.37,23.37,0,0,1-3.42-2c.9-1.18,1.63-3.15,2.75-3.4,11.3-2.58,22.72-4.68,34-7.31,8.71-2,17.34-4.49,25.92-7,19.6-5.75,39.64-10.43,58.61-17.82,26-10.12,53.07-18.23,76.4-34.46,3.23-2.24,7.27-5.54,10.59-1.1.68.9-3.11,6.48-5.88,8.39-15.76,10.87-33.23,18.3-51.28,24.52-10,3.47-19.72,8-29.8,11.33-10.64,3.52-21.59,6.13-32.38,9.19-13,3.68-25.89,7.47-38.85,11.12-3.72,1-7.51,1.92-11.3,2.67-8.36,1.68-16.74,3.21-25.11,4.83C1260.79,860.81,1258.42,861.4,1257.05,861.71Z" transform="translate(-32.37 -26.42)"/><path d="M1147.62,536.57c1.19,6.44,2.79,12.85,3.51,19.35,2.53,22.94,5.2,45.88,7,68.88,2.74,34.88,5.24,69.81-4.59,104.21-2.58,9-4,18.31-6.47,27.35-.55,2-3.15,3.51-4.8,5.25-.56-2.24-1.91-4.61-1.55-6.69,1.75-10.06,4.47-20,5.91-30.08,5.29-37.08,9-74.21,4.62-111.78-2.82-24.31-4.36-48.78-6.45-73.18a14.35,14.35,0,0,1,.33-2.81Z" transform="translate(-32.37 -26.42)"/><path d="M1168.2,510.33c1.6,7.24,3.57,14.42,4.72,21.73,2.06,13.1,4,26.23,5.32,39.42,1.68,16.84,2.89,33.74,3.91,50.64a184.57,184.57,0,0,1,.06,25.76c-.8,10.25-2.7,20.42-4.12,30.62l-2.88-.08c-.42-5.63-1.2-11.26-1.21-16.88,0-17.18,1.16-34.42.15-51.53-1.35-23-4.35-45.85-6.56-68.78-.86-8.93-1.56-17.88-2.22-26.83a16.31,16.31,0,0,1,.66-4Z" transform="translate(-32.37 -26.42)"/><path d="M1233.82,825.88a53.22,53.22,0,0,1,6.48-2.57c25.12-6.36,50.37-12.21,75.34-19.12,13.92-3.85,27.29-9.62,41.07-14,2.75-.88,6.22.48,9.35.81-2.28,2.26-4.15,5.58-6.89,6.62-29.39,11.23-59.73,19.26-90.35,26.29-7.74,1.78-15.62,3.1-23.49,4.24-3.59.52-7.32.09-11,.09C1234.16,827.43,1234,826.66,1233.82,825.88Z" transform="translate(-32.37 -26.42)"/><path d="M819.55,858.73c10.58-13.09,3.48-28,4.33-42.18.23-3.78-2.07-9.29,4-9.89,5.76-.57,5.74,5.2,6.14,8.9,1.23,11.35,2.11,22.76,2.61,34.16C837,859.43,828.64,863.89,819.55,858.73Z" transform="translate(-32.37 -26.42)"/><path d="M1072.58,424.91c3,.89,7.29.82,8.72,2.82,8.25,11.54,21.43,16.77,31.73,25.64s15.41,20.92,22.21,31.95c1,1.61-.49,4.76-.82,7.19-2-1.29-4.75-2.12-5.93-3.95-4.54-7-7.65-15.17-13-21.41-7.77-9-16.9-16.94-25.72-25-5.65-5.19-11.78-9.86-17.7-14.76C1072.24,426.53,1072.41,425.72,1072.58,424.91Z" transform="translate(-32.37 -26.42)"/><path d="M1019.2,938.08c3.5-2.31,6.74-5.23,10.54-6.81,14.85-6.17,30.57-7.11,46.43-6.77a4.21,4.21,0,0,1,2.38.41c2.15,1.79,4.15,3.77,6.2,5.68-2.39.4-4.88,1.46-7.15,1.1-16.68-2.72-32.58.21-48.2,5.89-2.94,1.07-6,1.81-9,2.71C1020,939.55,1019.6,938.81,1019.2,938.08Z" transform="translate(-32.37 -26.42)"/><path d="M1163.63,767.18c-2.8-6.32,3.7-33.23,9-38.59C1177,736.36,1171.05,762.52,1163.63,767.18Z" transform="translate(-32.37 -26.42)"/><path d="M968.63,406.73c-10.38,1.89-20.77,3.76-31.15,5.69-3.41.63-6.78,1.65-10.22,1.95-1.08.09-2.32-1.62-3.48-2.5.78-1,1.45-2.84,2.38-3,12.25-2,24.52-3.8,36.83-5.37,1.88-.24,3.94,1,5.92,1.53C968.82,405.61,968.72,406.17,968.63,406.73Z" transform="translate(-32.37 -26.42)"/><path d="M1253.35,788.06c14.82-5.81,30-10.14,46.61-11.28C1296,783.09,1262.83,791,1253.35,788.06Z" transform="translate(-32.37 -26.42)"/><path d="M672,434.8c.48-11.24,17.82-22.35,30.89-19.53Z" transform="translate(-32.37 -26.42)"/><path d="M1136.86,789.65c-.25,3.1,0,6.36-.87,9.26a95,95,0,0,1-6.38,15.81c-1,1.95-4.09,2.83-6.23,4.2-.17-2.39-1.12-5.06-.39-7.13a155.78,155.78,0,0,1,7.07-16.13,60.74,60.74,0,0,1,4.44-6.82Z" transform="translate(-32.37 -26.42)"/><path d="M1107.65,833.11c-1.42,11.18-17.59,16.57-27.41,9.54Z" transform="translate(-32.37 -26.42)"/><path d="M1024.19,402.53c5,2.2,10.19,4.29,15.15,6.81,1,.52,2,3.46,1.65,3.84-1.14,1.12-3.22,2.36-4.52,2a164.45,164.45,0,0,1-16.72-5.54c-1.15-.45-1.75-2.3-2.61-3.5Z" transform="translate(-32.37 -26.42)"/><path d="M1517.86,660.85c1.21,9.51-8.2,19.11-17.94,18.87C1504.9,671.87,1510.6,665.65,1517.86,660.85Z" transform="translate(-32.37 -26.42)"/><path d="M1565.81,718.47c1-7.34,3.08-13.94,9.11-18.36,1.07-.79,3-.47,4.47-.66.13,1.54.79,3.26.32,4.58C1577.28,710.76,1571.91,714.87,1565.81,718.47Z" transform="translate(-32.37 -26.42)"/><path d="M1156.68,806.92c-1.08,4.21-1.59,7.66-3,10.73-.53,1.2-3,1.53-4.57,2.26-.6-1.4-1.71-2.81-1.7-4.21,0-3,0-6.3,1.15-9,.93-2.28,3.41-3.92,5.2-5.85C1154.81,803,1155.82,805.09,1156.68,806.92Z" transform="translate(-32.37 -26.42)"/><path d="M1139.12,432.48c9.28.46,18.67,12.87,17.21,22.26C1147.44,449.57,1146.58,439,1139.12,432.48Z" transform="translate(-32.37 -26.42)"/><path d="M1294.11,750.73c-1.76-1.38-3.74-2.28-4.44-3.77-.34-.73,1.42-3.22,2.72-3.79a50.34,50.34,0,0,1,10.39-3.19c1.5-.29,3.25.76,4.89,1.21-.72,1.5-1,3.7-2.23,4.39C1302,747.56,1298.22,748.92,1294.11,750.73Z" transform="translate(-32.37 -26.42)"/><path d="M1625.22,550.61c0,6.49.12,13-.14,19.47,0,.84-1.89,2-3.07,2.26-.54.13-2.21-1.55-2.15-2.32.46-6.52,1.2-13,1.86-19.52Z" transform="translate(-32.37 -26.42)"/><path d="M657.53,470.51c2.13,6.95-.13,11.76-3.44,16.22-.59.81-2.53,1.61-3.06,1.25a4.41,4.41,0,0,1-1.84-3.33C649.79,479.15,651.38,474.07,657.53,470.51Z" transform="translate(-32.37 -26.42)"/><path d="M678.56,777c-5.33-4.95-7.33-12.37-4.75-16.81,1-1.64,3.55-2.33,6.46-4.1C679.61,764.16,679.12,770.14,678.56,777Z" transform="translate(-32.37 -26.42)"/><path d="M1484.08,773.82c-.64-.39-2-.79-2.47-1.67s-.37-2.85.24-3.28a120.19,120.19,0,0,1,11-6.79,13.23,13.23,0,0,1,2.09,2.93c-3.13,3-6.44,5.78-9.73,8.6C1485.06,773.73,1484.81,773.7,1484.08,773.82Z" transform="translate(-32.37 -26.42)"/><path d="M1391.37,683.28c1.05,1.85,3.44,4.44,2.9,5.43-1.55,2.84-4.29,5-6.56,7.5-1.39-1.29-4.17-3.12-3.92-3.78,1.26-3.28,3.32-6.26,5.1-9.34Z" transform="translate(-32.37 -26.42)"/><path d="M828,783.7c-1.68-2.49-3.85-4.81-4.76-7.55-.32-1,2.45-2.95,3.8-4.48,2,1.92,4.59,3.54,5.57,5.87.59,1.38-1.43,3.87-2.29,5.86Z" transform="translate(-32.37 -26.42)"/><path d="M1469.35,709.22c-4.31,3.18-7.07,5.43-10.1,7.22-.47.28-2.17-1.51-3.3-2.34a106.81,106.81,0,0,1,7.44-8C1463.77,705.73,1466,707.4,1469.35,709.22Z" transform="translate(-32.37 -26.42)"/><path d="M1044.16,835.09c-5.29,4-10.11,2.72-14.67-3.63C1033.88,828.07,1036.92,828.77,1044.16,835.09Z" transform="translate(-32.37 -26.42)"/><path d="M1347.63,767.93l-4.39-4.25a105.46,105.46,0,0,1,9.27-5.94c.58-.3,2.29,1.54,3.47,2.4Z" transform="translate(-32.37 -26.42)"/><path d="M1208.37,748.8c-1-8,.83-11,8.21-13.15C1216.28,741.59,1214.07,745.75,1208.37,748.8Z" transform="translate(-32.37 -26.42)"/><path d="M1387.67,750.13c-1.33-2.35-2.8-4.46-2.59-4.64a54.44,54.44,0,0,1,7.83-5.65c.26-.15,1.82,1.88,2.77,2.89Z" transform="translate(-32.37 -26.42)"/><path d="M1529.06,736.09c-2.87,2.22-4.92,3.9-7.14,5.31a10.63,10.63,0,0,1-2.29-2.7,39.63,39.63,0,0,1,5.61-5.53C1525.47,733,1527.08,734.56,1529.06,736.09Z" transform="translate(-32.37 -26.42)"/><path d="M1400.65,775.88c-.35,1.17-.35,2.06-.72,2.24-2.51,1.29-5.1,2.42-7.66,3.61-.2-.9-.87-2.1-.52-2.64C1393.71,776.07,1396.19,773.93,1400.65,775.88Z" transform="translate(-32.37 -26.42)"/><path d="M1115.48,941.27l-10.83-4.63C1111.33,932.69,1114.43,934,1115.48,941.27Z" transform="translate(-32.37 -26.42)"/><path d="M1605.85,651l-4.41,5.52c-.82-.93-2.49-2.19-2.28-2.73a30.39,30.39,0,0,1,3.24-5.38Z" transform="translate(-32.37 -26.42)"/><path d="M968.66,945.39,962.94,937l2.09-1.51,6.25,8Z" transform="translate(-32.37 -26.42)"/><path d="M648.35,537.12c-1.36-3.27-2.52-4.81-2.44-6.27.07-1.23,1.59-2.39,2.46-3.58,1,1.26,2.73,2.45,2.87,3.8S650,534,648.35,537.12Z" transform="translate(-32.37 -26.42)"/><path d="M951.2,1180.86c2.66-1.61,5.2-3.45,8-4.79,18-8.71,36-17.44,54.16-25.8,3.13-1.45,7.06-1.17,10.62-1.69-2.28,3-3.91,7.37-6.93,8.79-17.73,8.31-35.73,16.06-53.77,23.7-3.39,1.43-7.34,1.54-11,2.26C951.89,1182.51,951.55,1181.68,951.2,1180.86Z" transform="translate(-32.37 -26.42)"/><path d="M1050.43,1135.17c-.23,1.16-.19,1.8-.4,1.91-2.94,1.41-5.91,2.75-8.87,4.1-.34-.86-1.22-2.19-.94-2.53C1042.79,1135.61,1045.83,1133.56,1050.43,1135.17Z" transform="translate(-32.37 -26.42)"/><path d="M863.9,1221.69l-3.54,3.09a36.73,36.73,0,0,1-3.64-4.87c-.21-.38,1.21-1.65,1.88-2.51Z" transform="translate(-32.37 -26.42)"/><path d="M4636.83,507c-76.31,0-112.16,46.25-112.16,46.25v-244h-111V953.36h93.66c9.25,0,16.18-8.09,16.18-16.19V917.52s35.85,47.41,112.17,47.41c126,0,224.32-97.14,224.32-228.95S4761.71,507,4636.83,507Zm-18.5,352.67c-42.78,0-76.31-22-93.66-47.41V657.35c17.35-23.13,54.35-47.41,93.66-47.41,74,0,130.66,46.25,130.66,124.88S4692.34,859.7,4618.33,859.7Z" transform="translate(-32.37 -26.42)"/><path d="M4355.85,695.51v259h-111V708.22c0-71.69-23.12-100.59-85.56-100.59-33.53,0-68.22,17.34-90.19,42.78v303h-111V518.59H4046c9.25,0,16.19,8.09,16.19,16.19v18.5c32.37-33.53,75.16-46.25,117.94-46.25q72.85,0,121.41,41.62C4340.82,581,4355.85,622.66,4355.85,695.51Z" transform="translate(-32.37 -26.42)"/><path d="M3688.66,507c-76.32,0-112.16,46.25-112.16,46.25v-244h-111V953.36h93.66c9.26,0,16.19-8.09,16.19-16.19V917.52s35.85,47.41,112.16,47.41c126,0,224.33-97.14,224.33-228.95C3913,604.16,3814.7,507,3688.66,507Zm-18.5,352.67c-42.78,0-76.32-22-93.66-47.41V657.35c17.34-23.13,54.35-47.41,93.66-47.41,74,0,130.66,46.25,130.66,124.88S3744.16,859.7,3670.16,859.7Z" transform="translate(-32.37 -26.42)"/><path d="M2203.56,855.55v95.36H1822.11v-74.7l217.75-257.48H1827.67V523.37h368.74v74.7L1978.67,855.55Z" transform="translate(-32.37 -26.42)"/><path d="M2193.24,737.14c0-128.74,99.34-220.13,235.23-220.13s234.44,91.39,234.44,220.13-98.54,220.13-234.44,220.13S2193.24,865.88,2193.24,737.14Zm344.11,0c0-73.91-46.89-118.41-108.88-118.41s-109.67,44.5-109.67,118.41,47.69,118.41,109.67,118.41S2537.35,811.05,2537.35,737.14Z" transform="translate(-32.37 -26.42)"/><path d="M3415.48,706.15V950.91h-124V725.22c0-69.14-31-100.93-81.06-100.93-55.62,0-94.57,35.77-94.57,112.06V950.91h-124V725.22c0-69.14-29.4-100.93-81.06-100.93-54.83,0-93.77,35.77-93.77,112.06V950.91h-124V523.37h118.41v49.27C2843.31,536.08,2891,517,2945.82,517c59.6,0,110.46,23,140.66,69.93,34.17-43.7,89.8-69.93,154.17-69.93C3342.37,517,3415.48,575.82,3415.48,706.15Z" transform="translate(-32.37 -26.42)"/></svg>