<svg id="Layer_1" data-name="Layer 1" xmlns="http://www.w3.org/2000/svg" viewBox="0 0 4923.62 1347"><path d="M4671.21,474c-86.45,0-127.06,52.4-127.06,52.4V250.05H4418.41V979.62h106.1c10.47,0,18.33-9.17,18.33-18.34V939s40.61,53.7,127.06,53.7c142.77,0,254.1-110,254.1-259.34S4812.67,474,4671.21,474Zm-21,399.5c-48.46,0-86.45-24.89-106.1-53.71V644.31c19.65-26.2,61.57-53.7,106.1-53.7,83.83,0,148,52.39,148,141.46S4734.08,873.53,4650.25,873.53Z" transform="translate(-0.38)"/><path d="M4352.92,687.53v293.4H4227.18v-279c0-81.21-26.2-114-96.93-114-38,0-77.28,19.64-102.17,48.46V979.62H3902.34V487.13h99.55c10.48,0,18.34,9.17,18.34,18.34v21c36.67-38,85.13-52.4,133.6-52.4q82.52,0,137.53,47.16C4335.89,557.86,4352.92,605,4352.92,687.53Z" transform="translate(-0.38)"/><path d="M3597.15,474c-86.44,0-127.05,52.4-127.05,52.4V250.05H3344.36V979.62h106.1c10.47,0,18.33-9.17,18.33-18.34V939s40.61,53.7,127.06,53.7c142.76,0,254.1-110,254.1-259.34C3851.26,584.06,3739.93,474,3597.15,474Zm-21,399.5c-48.47,0-86.45-24.89-106.1-53.71V644.31c19.65-26.2,61.56-53.7,106.1-53.7,83.83,0,148,52.39,148,141.46S3660,873.53,3576.2,873.53Z" transform="translate(-0.38)"/><path d="M1914.9,868.82v108H1482.8V892.23l246.66-291.67H1489.11v-108H1906.8v84.62L1660.14,868.82Z" transform="translate(-0.38)"/><path d="M1903.21,734.69c0-145.83,112.52-249.36,266.46-249.36s265.56,103.53,265.56,249.36S2323.6,984.05,2169.67,984.05,1903.21,880.53,1903.21,734.69Zm389.79,0c0-83.72-53.11-134.13-123.33-134.13S2045.44,651,2045.44,734.69s54,134.13,124.23,134.13S2293,818.41,2293,734.69Z" transform="translate(-0.38)"/><path d="M3287.72,699.58V976.85H3147.29V721.19c0-78.32-35.11-114.33-91.82-114.33-63,0-107.13,40.51-107.13,126.93V976.85H2807.91V721.19c0-78.32-33.31-114.33-91.82-114.33-62.11,0-106.22,40.51-106.22,126.93V976.85H2469.43V492.54h134.14v55.81c36-41.41,90-63,152.13-63,67.52,0,125.13,26.11,159.34,79.22,38.71-49.51,101.72-79.22,174.64-79.22C3204.9,485.33,3287.72,552,3287.72,699.58Z" transform="translate(-0.38)"/><path d="M1154.18,576.9C1154.18,258.8,895.39,0,577.28,0S.38,258.8.38,576.9A575.55,575.55,0,0,0,68.16,848.2c-14.22,26.3-21.6,54.63-21.6,83.59,0,102.74,92,188.72,221.41,214.26v79.87a121,121,0,0,0,183.82,103.52,120.88,120.88,0,0,0,125.49,0,120.88,120.88,0,0,0,125.49,0A121,121,0,0,0,886.6,1225.92v-79.87C1016,1120.51,1108,1034.53,1108,931.79c0-29-7.38-57.29-21.6-83.59A575.55,575.55,0,0,0,1154.18,576.9ZM828.26,1094.78v131.14a62.75,62.75,0,0,1-125.49,0,62.75,62.75,0,0,1-125.49,0,62.75,62.75,0,0,1-125.49,0,62.75,62.75,0,0,1-125.49,0V1094.78c-124.08-7.38-221.4-77.51-221.4-163,0-29.53,11.68-57.21,32-81.13A516,516,0,0,1,58.72,576.9c0-286.39,232.17-518.56,518.56-518.56s518.56,232.17,518.56,518.56a516,516,0,0,1-78.19,273.76c20.33,23.92,32,51.6,32,81.13C1049.66,1017.27,952.34,1087.4,828.26,1094.78Z" transform="translate(-0.38)"/><path d="M507.93,1070.86a69.35,69.35,0,0,0,138.7,0c0-38.31-69.35-139.88-69.35-139.88S507.93,1032.55,507.93,1070.86Z" transform="translate(-0.38)"/><path d="M350.34,185.9C533.4,82.6,765.17,114.4,914,263.2a14.58,14.58,0,0,0,20.62-20.62C776.58,84.55,530.42,50.79,336,160.5a14.58,14.58,0,1,0,14.34,25.4Z" transform="translate(-0.38)"/><path d="M238.39,267.48a14.54,14.54,0,0,0,10.31-4.28A475.77,475.77,0,0,1,286,229.63,14.59,14.59,0,1,0,267.66,207a505.05,505.05,0,0,0-39.58,35.63,14.59,14.59,0,0,0,10.31,24.9Z" transform="translate(-0.38)"/><path d="M537.35,804.12a102.15,102.15,0,0,0-180.87-65.25,102.23,102.23,0,0,0-181,65.25,100.52,100.52,0,0,0,5.06,31.47c17.52,78.89,175.93,178.3,175.93,178.3s158.23-99.41,175.8-178.3A100.53,100.53,0,0,0,537.35,804.12Z" transform="translate(-0.38)"/><path d="M926.2,714.52a102.07,102.07,0,0,0-128,24.35,102.23,102.23,0,0,0-181,65.25,100.52,100.52,0,0,0,5.06,31.47c17.52,78.89,175.94,178.3,175.94,178.3S956.43,914.48,974,835.59a100.53,100.53,0,0,0,5.07-31.47A102.35,102.35,0,0,0,926.2,714.52Z" transform="translate(-0.38)"/></svg>